<svg xmlns="http://www.w3.org/2000/svg" width="1220" height="340" viewBox="0 0 1220 340">
  
  <rect style="fill:#ffffff" x="0" y="0" width="1120" height="340"/>
  
<text x="24" y="42" style="font-family:Arial,Helvetica,sans-serif;font-size:26px;font-weight:700;fill:#2C2C2B">Inverting summing amplifier</text>
<line style="stroke:#2C2C2B;stroke-width:3;fill:none;stroke-linecap:round;stroke-linejoin:round" x1="50" y1="105" x2="160" y2="105"/><path style="stroke:#2C2C2B;stroke-width:3;fill:none;stroke-linecap:round;stroke-linejoin:round" d="M160 105 l10 -16 l10 32 l10 -32 l10 32 l10 -32 l10 16"/><line style="stroke:#2C2C2B;stroke-width:3;fill:none;stroke-linecap:round;stroke-linejoin:round" x1="230" y1="105" x2="390" y2="170"/>
<line style="stroke:#2C2C2B;stroke-width:3;fill:none;stroke-linecap:round;stroke-linejoin:round" x1="50" y1="170" x2="160" y2="170"/><path style="stroke:#2C2C2B;stroke-width:3;fill:none;stroke-linecap:round;stroke-linejoin:round" d="M160 170 l10 -16 l10 32 l10 -32 l10 32 l10 -32 l10 16"/><line style="stroke:#2C2C2B;stroke-width:3;fill:none;stroke-linecap:round;stroke-linejoin:round" x1="230" y1="170" x2="390" y2="170"/>
<line style="stroke:#2C2C2B;stroke-width:3;fill:none;stroke-linecap:round;stroke-linejoin:round" x1="50" y1="235" x2="160" y2="235"/><path style="stroke:#2C2C2B;stroke-width:3;fill:none;stroke-linecap:round;stroke-linejoin:round" d="M160 235 l10 -16 l10 32 l10 -32 l10 32 l10 -32 l10 16"/><line style="stroke:#2C2C2B;stroke-width:3;fill:none;stroke-linecap:round;stroke-linejoin:round" x1="230" y1="235" x2="390" y2="170"/>
<circle style="stroke:#2C2C2B;stroke-width:3;fill:#F0EFED;stroke-linejoin:round" cx="390" cy="170" r="5"/><polygon style="stroke:#2C2C2B;stroke-width:3;fill:#F0EFED;stroke-linejoin:round" points="390,100 390,240 560,170"/><line style="stroke:#2C2C2B;stroke-width:3;fill:none;stroke-linecap:round;stroke-linejoin:round" x1="560" y1="170" x2="700" y2="170"/>
<line style="stroke:#2C2C2B;stroke-width:3;fill:none;stroke-linecap:round;stroke-linejoin:round" x1="390" y1="220" x2="345" y2="220"/><line style="stroke:#2C2C2B;stroke-width:3;fill:none;stroke-linecap:round;stroke-linejoin:round" x1="345" y1="220" x2="345" y2="285"/><line style="stroke:#2C2C2B;stroke-width:3;fill:none;stroke-linecap:round;stroke-linejoin:round" x1="320" y1="285" x2="370" y2="285"/><line style="stroke:#2C2C2B;stroke-width:3;fill:none;stroke-linecap:round;stroke-linejoin:round" x1="330" y1="298" x2="360" y2="298"/>
<path style="stroke:#2C2C2B;stroke-width:3;fill:none;stroke-linecap:round;stroke-linejoin:round" d="M450 170 V65 H620 V170"/><path style="stroke:#2C2C2B;stroke-width:3;fill:none;stroke-linecap:round;stroke-linejoin:round" d="M475 65 l10 -16 l10 32 l10 -32 l10 32 l10 -32 l10 16"/>
<text x="56" y="98" style="font-family:Arial,Helvetica,sans-serif;font-size:17px;fill:#2C2C2B">V1</text><text x="56" y="163" style="font-family:Arial,Helvetica,sans-serif;font-size:17px;fill:#2C2C2B">V2</text><text x="56" y="228" style="font-family:Arial,Helvetica,sans-serif;font-size:17px;fill:#2C2C2B">Vn</text><text x="470" y="42" style="font-family:Arial,Helvetica,sans-serif;font-size:17px;fill:#2C2C2B">Rf</text><text x="715" y="162" style="font-family:Arial,Helvetica,sans-serif;font-size:17px;fill:#2C2C2B">Vo</text><text x="755" y="150" style="font-family:Arial,Helvetica,sans-serif;font-size:22px;fill:#2C2C2B">Vo = −Rf( V1/R1 + V2/R2 + ... )</text>
</svg>